<?xml version="1.0" encoding="utf-8"?>
<!-- Generator: Adobe Illustrator 22.1.0, SVG Export Plug-In . SVG Version: 6.00 Build 0)  -->
<svg version="1.1" xmlns="http://www.w3.org/2000/svg" xmlns:xlink="http://www.w3.org/1999/xlink" x="0px" y="0px"
	 viewBox="0 0 306.7 243.7" style="enable-background:new 0 0 306.7 243.7;" xml:space="preserve">
<style type="text/css">
	.st0{fill:#E2E3E4;}
	.st1{fill:#231F20;}
	.st2{fill:#010101;}
	.st3{fill:#FFFFFF;}
	.st4{fill:#539536;}
	.st5{fill:#F7901E;}
	.st6{fill:#CE372F;}
	.st7{fill:#0088CE;}
</style>
<g id="US">
	<g>
		<path class="st0" d="M160.6,88.2l0.4,0.3l0.2,0.4l0.3-0.6l0.4-0.5l0.1-0.2l0.4,0l0.2-0.3l-0.3-0.1l0,0c-0.1,0-0.1,0-0.2,0
			c-1.1,0-1.6,0.8-1.6,0.9L160.6,88.2z"/>
		<polygon class="st0" points="159.4,86.5 160,85.8 160.4,85.6 160.8,84.8 159,85.9 159,85.9 158.9,86.2 159,86.5 		"/>
		<path class="st0" d="M165,106.8L165,106.8l-0.2-0.3l-0.1-0.3l-0.1-0.4l0-0.1l-0.2-0.2l-0.2-0.4l-0.1-0.3l0-0.3l0-0.2l0-0.1
			l-0.1-0.4l0.1-0.2l0-0.4l-0.1-0.3l0-0.2l-0.2-0.2l0-0.2l-0.2-0.5l0.1-0.7l0-0.3l0.2-0.5l0-0.2l0,0c-0.3-1,0.1-1.4,0.2-1.4l0.2-0.2
			l-0.2-0.6l0.3-1.3l0.1-0.3l0.1-0.2l0.1-0.2l0.1-0.2l0.1-0.3l0-0.2l0.1-0.2l0.1-0.3l-0.1-0.2l-0.3,0.2l-0.3,0.4l-0.1,0.3l-0.1,0.3
			l0,0.3l-0.2,0.1l-0.3,0.1l-0.1,0.3l-0.1,0.2l-0.2,0.2l-0.1,0.2l-0.1,0.1l-0.1,0l0-0.2l0.1-0.5l0.2-0.4l0.1-0.2l0.4-0.2l0-0.4
			l0-0.2l0.3-0.5l0.2-0.4l0.2-0.5l0.4-0.8l0-0.1l0.1,0L165,93l0.2-0.2l0.1-0.2l0.2-0.2l0.2-0.1l0.2,0l0,0.1l-0.2,0.2l-0.1,0.4
			l0.3,0.1l0.1-0.2l0.2-0.2l0.1-0.2l0.1-0.2l0.1-0.2l0.1-0.2l0.2-0.1h0.4l0.5-0.2l0.3,0l0.2-0.1l0.2-0.3l0.2,0l0.4,0h0.3l0.4,0.1
			l0.4,0.3l0.3,0.1l0.1-0.3l0-0.3l0.1-0.1l0.3,0.1l0.2-0.1h1.2l0.2-0.1l-0.1-0.2l-0.2-0.2l-0.1-0.2l-0.3-0.1l-0.2-0.2l-0.1-0.3
			l-0.3-0.5l-0.3-0.1l-0.2,0.2l-0.1,0.1l-0.1-0.1l-0.2,0l-0.3,0.1l-0.3,0l-0.1-0.2l0-0.4l-0.1-0.3l-0.5,0.1l-0.4,0.2l-0.3,0.1
			l-0.4,0.1l-0.7,0l-0.6,0.2l-0.4,0.2l-0.3,0.3l-0.2,0.3l-0.2,0l-0.3,0l-0.3-0.2l-0.3,0l-0.4,0.1l-0.2-0.1l-0.5-0.7l-0.3-0.2
			l-0.2-0.1l-0.5-0.1l-0.6-0.1l-0.2,0.2l-0.2,0.1l-0.1,0.2l0-0.5l-0.2-0.3l-0.5-0.5l-0.2,0.2l-0.4,0.6l-0.5,0.2l-0.5,0.4l-0.4,0.1
			l-0.3,0l-0.2,0.1l-0.4,0.4l-0.8,0.4l-0.2,0.1l-0.7-0.2l-0.3,0.1h-0.1l0.1-0.2l0-0.3l0.1-0.1l0.1-0.3l-0.3-0.3l-1.1,0.6l-0.3,0.2
			l-0.7,0.3l-0.3,0.1c-0.1,0-0.2,0-0.2,0c0,0-0.1,0-0.1,0l-0.1-0.1l0-0.1l0-0.1l0.2-0.2l0.3-0.3l0.3-0.2l0.5-0.5l0.3-0.4l0.4-0.4
			l0.3-0.4l0.3-0.3l0.4-0.3l0.9-0.5l0.6-0.2l0.5-0.3l0.3-0.2l0.1-0.3l-0.6,0.1l-0.1-0.1l-0.2-0.2l-0.6,0l-0.8,0.1l-0.1-0.1l-0.1-0.2
			l-0.2-0.2l-1,0.6l-0.3,0.1l-0.6-0.2l-0.1-0.2l-0.5-0.2l-0.2-0.2l-0.3-0.2l-0.3,0.1l-0.1,0.2l-0.1,0l-0.2-0.4l-0.3-0.2l-0.1-0.2
			l0,0c-0.4-0.3-0.9-0.4-1.2-0.4c-0.2,0-0.4,0-0.4,0l-0.4,0.1l-0.3,0.2l-0.4,0l-0.1-0.3l-0.9-0.1l-0.2-0.2h-0.4l-0.5-0.2l0-0.2
			l0-0.4l-0.3-1.2l0,0l-0.3-0.2l-0.6,0l0,1.2c-0.7,0.1-1.5,0.1-2.6,0.1c-0.6,0-1.3,0-2.1,0h0c-4.9-0.1-11.6-0.4-15.2-0.6l-0.4,0
			c-1.1-0.1-1.8-0.1-1.8-0.1l-6.6-0.6l-5-0.6l-4.9-0.7l-4.6-0.7l-4.1-0.8l-2.2-0.5l-3.8-0.8l-8.4-2.1l-0.5-0.1l-0.2,0.1l-0.1,0.2
			l0.1,0.2l0.1,0.3l0.2,0.2l0.1,0.1l0,0.4l-0.2,0.1l0.1,0.2l0,0.1L82.8,77l-0.3,0l0,0.2l0.3,0.3l0.1,0.2l0,0.2l0,0.3l0,0.2l0.1,0.2
			v0.2l-0.5,0.5l-0.2,0.4l0.1,0.3l-0.1,0.1l0,0.4l0,0.1l-0.1,0.1l-0.1,0.1L81.9,81l-0.2,0.1l-0.1,0.1l-0.1,0.1l-0.1,0.1l-0.1,0
			c0,0,0-0.1,0-0.1c0,0,0-0.1-0.2-0.1l0,0l-0.1,0.1l-0.1,0.1l0,0l0-0.1l0-0.1l0-0.1l0.1-0.1l0.2-0.2l0.2,0l0.1,0.2l0.1-0.1l0.2,0.2
			l0.1-0.1l0.1-0.1l0.1-0.1l0.1-0.2l0.1-0.2l0-0.2L82,80l0,0c0,0,0,0-0.1,0c0,0,0,0,0,0c0,0-0.1,0-0.1,0c0,0,0,0,0,0c0,0,0,0,0,0
			l0-0.1l0.1,0h0.1l0.1-0.1l0-0.2l0-0.1l0.1,0l0.1,0l0.1-0.1l0.1-0.2l0-0.2l-0.1-0.2l-0.2,0.1l0-0.2L82,78.2l0.1-0.4l-0.4,0.3
			L81.6,78L81.4,78l0-0.3l-0.1-0.2l-0.2,0.1h-0.3l-0.2-0.1l-0.5-0.1L80,77.3l-0.2,0L79.2,77l-0.1-0.2l-0.4-0.2l-0.3-0.3l-0.2-0.2
			l-0.3-0.2l0,0.5l-0.1,0.3l-0.1,0.3l0,0.7l0.2,0.4l0.1,0.7l-0.1,0.6l0.1,0.8L77.8,81l0.2-0.2l0.4,0.4l-0.3,0.1l-0.3-0.2l-0.1,0.4
			l0,0.3l0.5,0.1l0.1,0.1l0,0.1L78,82L78,82.3l0,0.3l-0.1,0.1l-0.2-0.8l-0.2,1l-0.1,0.4l0.3,0l0.1,0.2l0.5-0.1l0.2,0.2l0.4,0.1
			l0.3,0.4l0,0L78.8,84l-0.3-0.2l-0.4-0.1L78,83.7l-0.1,0.2l0-0.1l-0.3-0.1l0,0.2l-0.1,0.3l-0.2,0.3l0,0.2L77.1,85l0.1,0.4l-0.1,0.1
			l-0.2,0.3l0.1,0.2l-0.2,0l0,0.2l-0.1,0.2l-0.1,0.5l-0.2,0.4l-0.6,1.1L75.6,89l0,0.3l-0.2,0.2l-0.8,2.1l0.1,0.1l-0.3,0.2l-0.3,0.5
			l0.1,0.2l-0.2,0L74,92.9l-0.2-0.1L73,94.2l0.1,0.8L73,95.3l-0.1,0.2l-0.2,0.5l0,0.9l0.2,0.4l-0.1,0.4l-0.2,0.3l0.1,0.1l0.1,0.2
			l0,0.4l-0.1,0.6l-0.3,0.5l-0.3,0.5l0,0.4L72,101l-0.1,0.2l-0.3,0.2l-0.3,0.2l0,0c-0.2,0.4-0.3,0.4-0.2,0.4c0,0.1-0.1,0.3-0.1,0.5
			l-0.1,0.5l0.5,0.6c0,0.1,0,0.1,0,0.2v0h0c0,0,0,0,0,0l0,0c0,0,0,0.1,0.1,0.2l0.3,0.8l0,0.4l0,0.5l-0.3,0.6l0,1.2l-0.2,0.3l0.3,0.6
			l0.4,1.1l0.4,0.6l0.1,0.3l0.2,0.4l0-0.1l-0.3,0.8l0.3-0.1l0.2,0.5L73,112l0.3,0.4l0.3-0.2l-0.1-0.2l0.1-0.1l0-0.2l0.1-0.2l0.2-0.1
			l0.6,0.4l0.2,0l0.2,0L75,112l0.6,0l0.2-0.1l0.1,0.1l-0.4,0.2l-0.1-0.1l-0.6-0.1l-0.4-0.1l-0.3-0.1l-0.3,0.1l-0.1,0.2l0.1,0.1
			l0,0.1l0,0.3l0.1,0.1l0.1,0.7l0.1,0.3l0,0l-0.2-0.2l-0.3-0.3l0-0.1l0.1-0.6l-0.1-0.2h-0.2l-0.1,0.1l0,0.3l-0.1,0.3l-0.1,0.2
			l0.1,0.2l0,0.3l0,0.2l-0.1,0.3l0,0.2l0.4,0.9l0.2,0.2l0.5,0.1l0.1,0.7l-0.1,0.1l-0.1,0.2l-0.5,0.2l-0.1,1l0.4,0.5l0.2,0.5l0.3,0.2
			v0.5l0.2,0.4l0,0.4l0.4,0.3l0.1,0.5l0.4,0.4l0,0.2l-0.1,0.1l-0.1,0.3l0.1,0.3l0,0c0.2,0.1,0.4,0.2,0.4,0.3c0,0.1,0,0.2,0,0.2
			l-0.2,0.3l0,0.4l-0.1,0.2l0.1,0.3l-0.1,0.2l-0.1,0.3l0.2,0.1l0.3,0.5l1.1,0.2l0.6,0.4l0.5,0.1l0.6,0.6l0.1,0.5l0.9,0.7l0.9,0.1
			l0.2,0.5l-0.1,0.3l0,0.3l0.3,0.2l0.1-0.1l0.4,0.1l0.7,0.9l0.6,0.7l0.4,1.3l-0.1,0.7c0,0.3,0,0.3,0,0.3c0,0,0.1,0.1,0.2,0.1
			l-0.1,0.2l0.1,0.4l6.7,0.7l0.1,0.1l-0.1,0.2l-0.2,0.2l0,0.3l10.1,5.7l5.9,0.8l0-0.1l1.8,0.2l0.3,0.1l0.2,0l0.1-0.1l0.1-0.8l0-0.2
			l0.1-0.2l0.2-0.2l0,0l4.6,0.5l-0.3-0.8l0.3,0.9l0.4,0.3l0.2,0.3l0.2,0.5l0.6,0.3l0.5,0.5l0.6,0.7l0.6,0.8l0.8,0.5l0.3,0.2l0.1,0.3
			l0.2,0.1l0.1,0.5l0.1,0.2l0.4,0.7l-0.1,0.6l0.7,1.5l0.4,0.2l1,0.9l0.5,0.2l0.2,0.1l0.5,0.4l0.5,0.3l0.5,0.1l0.2-0.1l0.5-0.5
			l0.2-0.2l0.1-0.3l0.2-0.1l0.3-0.8l0.2-0.4l0.2-0.1l0.6-0.1l0.3-0.2l0.1-0.1l0.2,0.1l0.6,0.1l0.7,0.1l0.6,0.1l0.2-0.1l0.3,0.1
			l0.2,0.3l0.2,0.3l0.2,0l0.1,0.1l0.4,0.4l0,0.2l0.7,0.6l0.4,0.6l0.2,0.6l0.7,1.3c0,0.9,0.6,1.2,0.7,1.2l0.4,0.6l0.3,0.6l0.5,0.6
			l0.6,0.3l-0.1,0.8l0.2,0.3l0,0.6l0.7,1l0.2,0.7l0.2,0.2l-0.1,0.3l0.8,0.1l0.5,0.4l0.2,0l0.3,0.1l0.3,0.1l0.6,0.6l0.4,0l0.9,0.1
			l0.3,0.1l0.9,0.8l0.1-0.2l0.6-0.3l-0.4-0.2l-0.1-0.1l0.2-0.1l-0.2-0.2l-0.1-0.5l-0.3-0.6l0-0.3l-0.2-0.7l-0.1-0.2l0.1-0.2
			l-0.1-0.2l0-0.1l0.3,0l0-0.2l0.1-0.2l0.1-0.2l0.1-0.4l-0.5,0.2l-0.4-0.2l-0.1-0.4l0.2,0.3l0.3-0.1l0,0.2l0.5-0.3l0.3-0.9l0,0
			l0-0.2l-0.3-0.4l-0.1,0l0.5-0.1l0.3,0.2l0.6-0.9l0-0.3l-0.4,0.4l-0.2-0.2l0.1-0.2l0.6-0.1l0,0l0.1-0.2l0,0.5l0.5-0.4l0.1-0.3
			l-0.1-0.3l0.1-0.2l0.2,0.4l0.3,0.1l0.7-0.4l-0.2-0.2l-0.3,0.1l0.1-0.1l-0.2-0.4l0.4,0.3l0.3,0l-0.1-0.3l0.2,0.2l0.2-0.1l0,0.2
			l0.2,0.1l0.2-0.1l-0.1,0.3l0.6-0.3l0.1-0.2l0-0.1l0.8-0.2l0.8-0.4l0.6-0.7l0.1-0.3l0.3-0.2l0.2-0.3l0.2-0.2l0.1-0.3l-0.2-0.2
			l0-0.2l-0.2-0.2l0-0.3l0.3,0.1l0.1-0.3c0.1-0.1,0.3-0.1,0.3-0.2c0,0.1,0,0.2,0,0.3l-0.1,0.5l0.6-0.1l-0.7,0.8l1.1-0.6l0.6-0.3
			l0.5-0.2l0.4-0.1l0.3-0.1l-0.2-0.4l0.1-0.1l0.3-0.4l0.1,0l0,0.2l-0.2,0.2v0.3l0.2,0.3l0,0c0.1-0.1,0.1-0.1,0.2-0.1
			c0.1,0,0.3,0,0.3-0.1l0.6-0.1l0.3-0.1l-0.2-0.3l0.2-0.1l0.1-0.4l0.1,0.1l0,0.3l-0.2,0.3l0.4,0.1l0.7,0.2l0.6,0.3l0.9,0.2l0.7,0.1
			l0.3-0.1l0.3-0.2l-0.2-0.3l-0.1-0.1l0.2,0l0.7-0.3l0,0.3l0.6,0l0.3,0.3l0.1,0.3l0.7,0.2l0.1-0.2l0,0.3l0.1,0.2l0,0.1l-0.2,0.2
			l0.1,0.3l0.6,0.2l0.2-0.1l0.4,0.3l0.2-0.1l0.5,0.1l0-0.3l0.1-0.3l0.5-0.2l0.1,0.2l0.2-0.1l0.2,0l0,0.3l0.1,0.3l0.3-0.1l0.4-0.4
			l-0.1-0.2l0.2-0.1l-0.2-0.4l-0.4-0.2l0-0.2c0.8,0.3,1.1,0.4,1.2,0.4c0,0.1,0,0.1-0.1,0.2l0,0.1l0.4,0l0.1,0.3h0.5l0.2,0.4l0.2-0.1
			l-0.1,0.9l0.5-0.6l0.4,0.3l0-0.1c0-0.1,0.1-0.2,0.1-0.2c0,0,0.1-0.2,0.1-0.2l0.1-0.1l0.2-0.3l-0.2-0.1l-0.1-0.2l-0.9-0.2l-0.3,0
			l-0.1-0.2l-0.5-0.1l-0.1-0.1l0,0l0.1-0.2l0.4,0l-0.2-0.3l0-0.2l0.2-0.1l0.4-0.1l0-0.4l-0.2-0.1l-0.1-0.5l-0.4,0.2l-0.1,0.2
			l-0.1,0.3l-0.1-0.1l-0.2-0.1c-0.1-0.1-0.1-0.1-0.2-0.1c0,0,0.1-0.1,0.2-0.1l0.4-0.3l-0.3,0l-0.1-0.1l-0.2,0.1l-0.2-0.1l-0.2,0.2
			l-0.3,0.1l-0.9,0l-0.1-0.1l-0.1-0.2l0.4-0.5l0.3-0.1l0.6,0.3l0.3,0.1l0.3,0.1l0.4,0.1l0.5-0.1l-0.1-0.1l0.2-0.1l0.3-0.4l0.2,0
			l0.8-0.4l0.4-0.1l0.5,0.2l0.2-0.1l0.4,0.1l0.1-0.2l0,0l0,0l0.4,0l0.4,0.1l0.1-0.2l0-0.3l0.1-0.4l0.1-0.4l0.1,0.1l0.2,0.3l0,0.3
			l0,0.3l0.4,0.1l0.1,0.2l-0.7,0.4l0.6-0.1l0.5-0.1l0-0.2l0.3-0.1l0.2-0.3l0.1-0.2c0,0,0.1,0.1,0.1,0.2l-0.1,0.4l0.3-0.1l0.2-0.2
			l0.1-0.3l0.1-0.2l0.2,0.1l0.1-0.3l0.2,0.2l-0.4,0.5l0.9-0.2l0.6-0.1l0.2-0.2l0.2-0.1l0,0.1l0.3-0.1l0.3-0.1l0.4,0.1l0,0.1l-0.2,0
			l-0.4,0l-0.6,0.3l1.6,0.3l0.6,0.2l0.2-0.1l-0.2-0.2l-0.1-0.1l0.2,0l0.3-0.1l0,0.1l0,0.3l0.2,0.2l-0.3,0.1l0.4,0.2l0.4,0.3l0.3,0.1
			l0.1,0.3l-0.2-0.1l0.1,0.4l0.3,0.1l0.5-0.1l0.4-0.1l0.1-0.1l0.1-0.1l0.1,0.1l0.2-0.1l0.2-0.2l0.3-0.2l0.4-0.1l0.3,0l0-0.2
			l-0.1-0.2l0.1-0.2l0.2-0.2l0.7-0.1l0.4,0.2l0.4,0.1l0.4,0.3l0.3,0.4l0.4,0.2l0.2,0.4l0.6,0.4l0.3,0.3l0.2,0.2l0.6,0
			c0.1,0.1,0.3,0.2,0.3,0.3c0,0,0,0.1,0,0.3l0,0l0.3,0.2l0.1,0.2l0,0.3l0.1,1l-0.2,1.1l0,0l0.1,0.2c0,0.2,0,0.3,0,0.3
			c0,0-0.1,0.3-0.1,0.6l0,0l0,0c0.1,0.1,0.1,0.1,0.1,0.2c0,0,0,0.1,0.2,0.2l0,0l0.3,0.1l0.1-0.1l0.1-0.3l0-0.3h-0.2l0-0.2l0-0.2
			l0.2,0.1l0.1,0.2l0.3-0.1l0.1,0.2l-0.1,0.4l-0.4,0.6l-0.5,0.1l0.3,0.2l0.5,0.2l0,0.4l0.9,1.3l0,0l0.3,0.1l0.2-0.2l0,0
			c0-0.1-0.1-0.2-0.2-0.3c0.1,0,0.3,0.1,0.3,0.1l0,0l0.3-0.1l-0.1,0.3v0.4l0.2,0.6l0.4-0.4l-0.2,0.6l0,0c0.1,0,0.3,0.1,0.4,0.1
			c0,0,0.1,0.2,0.1,0.4l0.3,0.8l0.4,0.3l0.4-0.1l0.6,0.2l0.8,1.1l0.3,0.2l0.4,0.1l0,0.1l-0.1,0.1l-0.3-0.2l-0.3,0.1l0,0.4l0.2,0.3
			h0.4l0.4-0.1l0.4-0.2h0.3l0.3-0.2l0.3-0.1l0.2-0.1l0.1-0.4l-0.1-0.4v-0.5l0.2-0.5l0.2-0.3l0-0.6l-0.1-0.7v-1.5l-0.3-0.8l-0.2-0.2
			l-0.2-0.4l-0.4-0.2l0.1-0.3l-0.2-0.2l-0.6-1.2l-0.3-0.3l-1.3-1.9l-0.3-0.6l0-0.1l0.2,0.2l0.7,0.1l-0.4-0.5l-0.6-0.6l-1-1.5
			l-0.8-1.3l-0.7-2l-0.2-0.3l-0.1-0.3v-0.4l-0.2-0.1l-0.2-0.5l0-0.3l0.1-0.3l0-0.2c0.1,0,0.1,0,0.2-0.1h0c0,0,0,0,0.1-0.1v0
			c0-0.1,0-0.2,0.1-0.4l0,0l0,0c-0.1-0.1-0.1-0.1-0.2-0.1c0,0,0.1-0.1,0.2-0.1l0.1-0.2l0.1-0.3l-0.2,0l0-0.1l0.2-0.2l-0.2-0.2l0-0.1
			l0.3-0.3l0,0c-0.1-0.1-0.1-0.2-0.1-0.2c0,0,0,0,0-0.1l0.3,0l0-0.3c0.1-0.1,0.2-0.2,0.2-0.2l0,0l0,0l0.1,0l-0.1,0l0,0h0
			c0,0-0.1-0.1-0.1-0.1l0.1-0.2l0.1-0.2l0.1-0.1l0-0.2l-0.2-0.3l0-0.1l0.2,0.1c0.1,0,0.2,0.1,0.3,0.1l0,0h0c0,0,0.1,0,0.2-0.1
			c0,0,0.1,0,0.1,0c0,0,0,0,0.2-0.3l0,0l-0.2-0.3l-0.3-0.1l0.5-0.1l0.4-0.2l0.5-0.2l0.3-0.3l0.1-0.1l-0.1-0.2l0-0.1h0.1l0.3-0.1l0,0
			c0.1-0.1,0.2-0.3,0.3-0.3c0,0,0.1,0,0.2-0.2l0,0l-0.1-0.2l0.1-0.2h0.5l0.2-0.4l0.2-0.3l0-0.8l0.4-0.9l0.9-1.1l1.2-0.3l0.3-0.1
			l0.2-0.3l0.1-0.5l0.1-0.5l0.3-0.5l0.5-0.5l0-0.2h0.2l0.2-0.3l0.1-0.3l0.3,0.1l0.6-0.3l0.2-0.3l0.2,0.1l0.1-0.2l0.3,0.1l0.6-0.8
			l-0.2-0.4l-0.3,0.2l-0.2-0.4l-0.2,0.6l-0.2-0.1l-0.3,0.2l-0.5,0l-0.3-0.3l0.6,0.3l0.2-0.1l0.1-0.2c0.1-0.1,0.1-0.2,0.2-0.2l0,0
			l0,0c0,0,0,0-0.1-0.1l0-0.1l0.1-0.1l0.2-0.2l0-0.3l-1.3-0.2l-0.2-0.1l0.8,0l0.2,0l0-0.3l0,0l0.1,0.2l0.3,0.1l0.1-0.1l0.2,0.1
			l0.4,0.1l0.3,0l0.2-0.2l0.2-0.3l0.1-0.2l0.1-0.3h0.1l0.1-0.1l0.2-0.2v0c0-0.1,0-0.2,0-0.3c0,0,0,0,0-0.3l0,0l-0.3-0.4l-0.2,0l0,0
			c0,0-0.1,0.1-0.1,0.1c0,0-0.1,0-0.2,0.1l0,0l0,0.2c0,0.4,0,0.4,0,0.4c0,0,0,0.1,0,0.1l-0.2,0.1c0,0,0-0.1,0-0.1v-0.2
			c0,0,0-0.3,0-0.3l-0.1-0.4l-0.1,0c-0.1,0-0.2,0.1-0.3,0.1l0,0c0,0,0,0-0.2,0.3l-0.2-0.1l-0.3,0.1l-0.5,0.1l-0.1-0.1l-0.3-0.5
			l0.1-0.2l0.1,0.2l0.5,0.5l0.3-0.1l0.3-0.2l0,0c0-0.1,0-0.1,0-0.2c0.1,0,0.3,0,0.3,0l0,0l0,0c0.1,0,0.2-0.1,0.2-0.1h0
			c0,0,0,0,0.1-0.2l0,0l0,0c-0.1-0.1-0.1-0.1-0.2-0.2c0.1,0,0.2,0.1,0.2,0.1l0.4,0.1l0.4,0.1l-0.1-0.3l-0.3-0.5l-0.3-0.2l-0.1-0.3
			l0.2,0.1l0.1-0.1l0.1-0.1l-0.5-1l-0.1-0.1l-0.3,0l-0.4,0l-0.1,0.3l-0.5,0.1l-0.1-0.2l-0.6-0.6l-1.2-0.2l-0.7-0.1l0.7-0.2l0.7,0
			l0.5,0.1l0.3,0.2l0.4,0.3l0.2,0l0.1-0.1l-0.1-0.2l-0.2-0.1l-0.7-0.2l-0.5-0.5l0.8,0.4l0.1-0.1l-0.2-0.4l0.6,0.2l0-0.4l-0.2,0
			l-0.1-0.1l-0.4-0.2l-1.6-1.4l0.1-0.1l0.9,0.6l0.6,0.4l0.4,0.1l0.1-0.1l-0.1-0.4l0.1-0.1l0.1-0.1l-0.1-0.2l-0.9-0.4l-0.3-0.2
			l-0.7-0.1l-0.5-0.4l-0.5,0.2l0,0c-0.2-0.1-0.2-0.1-0.2-0.2c0,0,0-0.3,0-0.3v-0.5l0.4-0.2l0.2-0.3l0.1-0.4l-0.1,0.4l-0.2,0.3
			l-0.2,0.5l0.3,0.4l0-0.1c0.1-0.1,0.2-0.2,0.2-0.2c0,0,0.1,0,0.2,0c0,0.1,0.1,0.2,0.2,0.3l0,0l0.5,0.2l0.2,0l0.4,0.1l0.5,0.2
			l0.4,0.1l-0.1-0.4l-0.2-0.2c0,0-0.2-0.2-0.3-0.2c0,0,0,0,0,0l0.1-0.3l-0.2-0.3l-0.2-0.4l-0.1-0.3l0-0.3l-0.2-0.7l0.2-0.2l-0.1-0.1
			l-0.1-0.3l0,0c-0.2-0.1-0.3-0.2-0.4-0.2c0,0,0,0,0,0l0.2-0.1l0.2-0.1l0-0.2l0-0.2l0.1,0.1l0.1-0.3l0.2,0l0.1-0.2l0-0.3l0.2-0.1
			l0.3,0l0.1,0.5l-0.1,0.1l-0.4,0.2l-0.1,0.3l-0.1,0.4l0.3,0.2l0,0.1l0,0.1l-0.3,0.2l0,0c0.1,0.2,0.1,0.2,0.2,0.2l0,0
			c0,0,0.2-0.1,0.2-0.1c0.1,0.1,0.1,0.1,0.1,0.1c0,0,0,0.1,0,0.1l-0.3,0.1l-0.1,0.2l0.2,0.2l0.2-0.1l0.2,0.2l0,0.2l-0.1,0.1
			l-0.1,0.7l0.3,0.2l0.4,0.2l0.2-0.3l0.2-0.1l0,0.3l-0.1,0.4l0.5,0.1l-0.2,0.4l0.4,0l0.2,0l-0.1,0.1l0.1,0.2v0.1l-0.2,0.1l0,0.4
			l-0.2,0.5l0.1,0.4l-0.1,0.3l0,0.5l0,0c0.3,0.4,0.3,0.4,0.3,0.4c0,0,0,0,0.2-0.4l0,0l0-0.3l0.1-0.6h0.2l0.1-0.2l0,0
			c0-0.1,0-0.3,0.1-0.3c0,0,0-0.1,0.1-0.3c0-0.1,0-0.2,0-0.2c0,0,0,0,0.1-0.7l0-0.4l0.2-0.4l0.2-0.2l0-0.3c0-0.1,0-0.2,0-0.2
			c0,0,0-0.1,0.1-0.3l0,0l0,0c0-0.1,0-0.3,0-0.4v-0.1l0,0c0,0,0-0.1-0.1-0.3l0,0h-0.2l0-0.1l0-0.3l0,0c0-0.1,0-0.2-0.1-0.2
			c0-0.1,0-0.1-0.3-0.1l-0.4-0.4l-0.3-0.5l-0.1-0.4l-0.4-0.5l-0.1-0.1l0.6,0.3l0.4,0.3l0.2,0h0.3l0.1,0.1l0,0.2l0,0.3l0.1,0.2l0,0
			c0.2-0.1,0.2-0.1,0.2-0.1c0,0,0.1-0.2,0.2-0.3c0,0,0,0,0.1-0.3l0.1-0.3l0.1-0.3l0.3-0.3l0-0.1l0.1-0.3l0-0.2l0.2-0.1l0,0
			c0.2-0.2,0.2-0.2,0.2-0.2c0,0,0.1-0.2,0.1-0.3l0.1-0.6l0,0l0-0.4l0-0.4l-0.1-0.5c0-0.2,0-0.4,0-0.5c0,0,0-0.1-0.1-0.3l0,0l0,0
			c-0.1,0-0.2,0-0.2,0l0,0h0c0,0-0.2,0-0.3,0l-0.1-0.2l0-0.3l0.1-0.3l0.1-0.1l0.1,0l0.1,0.2l0.3,0.1l0.9-0.5l1.4-0.7l0.9-0.5
			l1.4-0.9l0.1-0.3l-0.2,0l-0.3,0.1l-0.3,0l-0.5,0.2l0.2-0.5l-0.1,0c0,0-0.1,0-0.2,0c0,0-0.2,0.2-0.2,0.3l-0.2,0.3l-0.5,0.2
			l-0.7,0.2l-0.3,0.2l-0.4,0.2l-0.6,0.2l-0.3,0.2l-0.2,0.1l0-0.1l0.1-0.1l0.2-0.3l0.4-0.4l0.6-0.5l0.6-0.4l0.7-0.2l0.5-0.2l0.6-0.3
			l0.5-0.1l0,0l0.1,0l0,0l0,0l0.5-0.2l0.4-0.3l0.1-0.2l0-0.2l-0.1-0.3l-0.1-0.3c0,0,0-0.1,0-0.1l0.1,0l0.1,0.1l0.2-0.1l0.3,0.8
			l0.2-0.2l0.3-0.3l0.2-0.3l0.2-0.2l0.2-0.2l0.1,0.6l0.1,0l0.2-0.1l0.2-0.2l0.2-0.1c0.2-0.1,0.3-0.1,0.3-0.2c0.1,0,0.4-0.2,0.5-0.3
			l0,0l0.1-0.3l-0.1-0.3l-0.2-0.4l-0.6-0.4l-0.3-0.1l-0.2,0.2l0.1,0c0.1,0,0.1,0.1,0.2,0.1c0,0,0.1,0,0.1,0c0.1,0,0.1,0,0.1,0
			c0,0,0.1,0.1,0.2,0.2l0.1,0.1l0,0.2l-0.1,0.2l-0.1,0.1l-0.2,0.1l-0.2,0.1l-0.2,0l-0.2-0.1c0,0-0.1-0.1-0.1-0.1c0,0,0-0.1-0.1-0.2
			l0,0L207,98l-0.1-0.1l0-0.2l-0.2-0.2l-0.3-0.2l-0.3-0.1l-0.3,0.1c-0.1,0-0.1,0-0.1,0c0,0,0,0,0-0.1c0-0.1,0-0.2,0-0.2
			c0,0,0-0.1,0-0.1l0.1-0.1l0-0.2l0.1-0.2c0.1-0.1,0.2-0.2,0.2-0.2c0,0,0.1-0.1,0.2-0.1l0,0l0,0c0,0,0-0.1,0-0.1l0,0l0,0
			c0,0,0,0-0.1,0l0,0l-0.1,0.1c-0.1,0-0.1,0-0.1,0c0,0-0.1-0.1-0.1-0.1l-0.1-0.1l-0.1-0.1l0-0.2l0-0.2c0,0,0-0.2,0-0.3v-0.3l0.1-0.2
			L206,94l-0.1-0.2l0-0.2l0.1-0.1l0.2-0.3l0-0.2l0,0c0-0.1,0-0.1,0-0.2c0,0,0,0,0,0c0,0,0,0,0-0.1c0,0,0.1-0.1,0.1-0.2l0.1-0.2
			l-0.1-0.1v-0.2l0.2-0.3l0.1-0.2l0.1,0.1l0.2,0.1l0-0.1l0.2,0.1l0.1-0.1l0-0.2l0.1-0.2l0,0c0-0.1-0.1-0.2-0.1-0.2c0,0,0-0.1,0-0.1
			l0.1-0.2l0,0l0.2,0.2l0.3,0.1l0-0.4l0.1-0.2l0.2,0l0.2,0l0.1-0.2c0-0.1,0.1-0.1,0.1-0.2l0,0l0,0c0,0,0,0,0-0.3c0-0.1,0-0.2,0-0.2
			c0,0,0-0.1,0-0.3l0-0.3l0-0.3c0,0,0.1-0.1,0.1-0.1c0,0,0.1,0,0.2-0.2l0.1,0.1l0,0.2l0,0.3l0.4,0c0,0,0.1,0,0.2,0
			c0.1,0,0.1,0,0.1,0l0,0l0,0c0,0,0-0.1,0-0.1l0-0.2l0-0.2l0.1,0l0.1-0.1l0.1-0.2L210,88l0.3,0l0.3,0.2h0.2l0-0.2l0.2,0l0-0.1
			c0-0.1,0-0.2,0-0.2c0,0,0-0.1,0-0.2l0.1-0.1l0.2,0.2l0.2-0.2l0.1-0.2l0.3-0.2l0.2-0.1l0.3-0.2l0.3-0.4v-0.4l-0.4,0.1l-0.1-0.1
			l0.3-0.2l-0.2-0.4l-0.4-0.3l-0.3,0.1l-0.3-0.2l-0.2-0.4v-0.6l-0.7,0l-0.5-0.1v-0.2l-0.1-0.5l-1-3.1l-0.5-0.6l-0.6-0.4l-0.6-0.2
			l-0.3,0.4l-0.6,0.3l-0.4,0.2l-0.3-0.2l-0.2-0.5l-0.4,0.1l-0.9,2.7l-0.2,0.5l0.2,0.7l-0.3,0.9l0.2,0.4v1.1l-0.3,0.4l-0.3,0.6l0,0.4
			l-0.1,0.3h-0.3l-0.2,0.3l-0.1,0.1l-0.4,0.1l-0.2,1.1l0,0.1l-4.2,1.1l0-0.1l-1.9,0.5l-1.3,0.3l-0.7,0.3l-0.8,0.9l-0.6,0.9l-0.7,1
			l-0.5,0.5l0,0v0.5l0.4-0.1l0.3,0.1v0.2l-0.3,0.3l0.3,1.1l-0.3,0.1l-0.3,0.3l-0.2,0.3l-0.4,0.4l-0.4,0.3l-0.4-0.1l-0.6,0.1
			l-0.5,0.2l-0.8-0.2l-0.7,0.1l-0.8,0.2l-1.1,0.5l-0.3,0.3l0.2,0.5l0.4,0.4l0.3,0.5l-0.4,0.5l-0.8,1.1l-0.7,0.6l0,0.1l-0.4,0.3
			l-0.2,0.2l-0.1-0.1l-0.2,0.3l-0.3,0.2l-0.4,0.3l-0.6,0.4l-0.4,0.2l-0.6,0.4l-0.4,0.3l-0.3,0.3l-0.1,0.2l0,0.1l-0.4,0.3l-0.4,0.1
			l-0.2-0.1l-0.5,0.2l-0.2,0.1l-0.3,0.1l-0.1,0.1l-0.5-0.1l-0.3,0l0-0.1l-0.2-0.2l-0.3,0.1l-0.3,0l-0.2-0.2l-0.3-0.1l-0.2-0.1
			l-0.3,0l-0.1,0l0-0.1l0-0.3l0.2-0.3l0.2-0.4l0.1-0.4l0-0.3l0.1-0.4l0.4-0.3v-0.3l0.2-0.4l0.2-0.2l0.2,0.3l0.1-0.2l0.2-0.4l0-1.1
			l-0.2-0.3c-0.1-0.2-0.3-0.5-0.3-0.5c0,0-0.1-0.5-0.1-0.5l-0.1-0.6c0-0.1-0.1-0.3-0.1-0.3c0,0,0,0-0.1-0.3l-0.2-0.5l-0.6-0.4
			l-0.2,0l-0.2,0.2l-0.2,0l-0.3,0.2l-0.3,0.2v0.6l-0.1,0.1l-0.2,0.3l-0.1,0.2l-0.2,0l-0.3-0.1l-0.1-0.2l-0.1-0.4l0-0.3l0.3-0.2
			l0.2-0.1l0,0c0-0.1,0.1-0.3,0.1-0.3c0,0,0-0.3,0.1-0.4c0.2-0.2,0.2-0.3,0.2-0.3c0,0,0.1-0.1,0.2-0.2l0,0l0-0.9c0-0.2,0-0.4,0-0.4
			c0,0-0.1-0.4-0.1-0.4l0,0c-0.2-0.2-0.3-0.3-0.3-0.3c0,0,0-0.1,0-0.1c0,0,0-0.1,0-0.1c0,0,0.1-0.1,0.1-0.2C174,94,174,94,174,94
			c0,0,0-0.1-0.1-0.2l-0.1-0.2l-0.2-0.3l-0.4-0.2l-0.4-0.1l-0.3-0.1l-0.4-0.1l-0.4-0.2l-0.2-0.2l-0.3-0.1l-0.4,0l-0.5-0.2l-0.3-0.1
			l-0.2,0l-0.4,0.4l-0.1,0.2l-0.1,0.3l0,0.2l0.2,0.1l0.1,0.1l0,0l-0.2,0l-0.3,0.1l-0.2,0.1l-0.2,0.3l0,0.3l0.1,0.4l0,0.4l-0.1,0.2
			l-0.1,0.1c0,0-0.1,0-0.1,0c0,0,0,0,0,0c0,0,0,0-0.1,0l-0.1-0.3l0-0.2l0.1-0.2l0.1-0.2l-0.1-0.3l-0.2,0.2l-0.1,0.2l-0.1,0.2
			l-0.1,0.3l-0.1,0.1l-0.2,0l-0.2,0.2l-0.1,0.3l0,0.2l-0.3,0.3l0,0.2l0.1,0.3l0.1,0.2l0,0.4l0,0.2l-0.1,0.4l-0.3,0.5l-0.1,0.3
			l0.1,0.2l0.1,0.3l0.1,0.4l-0.1,0.2l-0.1,0.3l0.2,0.3l0.6,1.1l0.1,0.4l0.2,0.7l0.1,1l-0.2,1l-0.3,0.6c-0.2,0.5-0.2,0.6-0.2,0.6
			c0,0-0.1,0.3-0.2,0.5l-0.5,0.5"/>
		<polyline class="st0" points="166.7,106.5 166.6,106.6 166.5,106.7 166.2,106.9 166,107 165.7,107.1 165.4,107.1 165.2,107 
			165.1,106.9 		"/>
		<polygon class="st0" points="207.3,99.7 206.8,100.5 207.8,100 207.8,99.7 207.5,99.6 		"/>
		<polygon class="st0" points="208.8,99.8 208.5,100.1 208.8,100.2 209.3,100.1 209.5,99.8 208.9,99.4 		"/>
		<polygon class="st0" points="195.7,117.4 196,117.5 195.6,117.3 		"/>
	</g>
</g>
<g id="Layer_1">
	<g id="Layer_2_1_">
	</g>
	<g id="Layer_1_1_">
	</g>
	<g id="icons">
	</g>
	<g id="Ecology_Icons">
	</g>
	<g id="Layer_5">
	</g>
	<g>
		<path class="st1" d="M256.8,164.3c3.2,0,6.5,0,9.7,0c0,1.9,0,3.7,0.1,5.4H247c0-1.7,0.1-3.4,0.1-5.4
			C250.3,164.3,253.5,164.3,256.8,164.3L256.8,164.3z"/>
		<path class="st1" d="M248.7,158.6c-4.3,1.2-6.5,2.3-10.4-1.3c0.3,2.1,0.5,3.3,2.5,4.9c4,3,8.9-2.6,13.3-0.7c0.6,0.3,2,1.2,2.6,1.7
			C255.4,159.5,253.5,157.3,248.7,158.6L248.7,158.6z"/>
		<path class="st1" d="M242.8,201.7c1.9-9.2,3-15,3.6-20.5h20.9c0.6,5.5,1.6,11.3,3.5,20.5h1.1l0,0c0.6,0,1.1,0.5,1.1,1.1l0,0
			c0,0.6-0.5,1.1-1.1,1.1h-30.6c-0.6,0-1.1-0.5-1.1-1.1l0,0c0-0.6,0.5-1.1,1.1-1.1H242.8L242.8,201.7z"/>
		<path class="st1" d="M266.6,170.9c0,0.7,0,1.3,0.1,2H247c0-0.6,0-1.3,0.1-2H266.6L266.6,170.9z"/>
		<path class="st1" d="M266.7,174c0.1,2.1,0.2,4,0.4,6h-20.7c0.2-2,0.3-3.9,0.4-6H266.7z"/>
	</g>
	<path class="st2" d="M242.3,136.8h-7c-0.3,0-0.6,0.2-0.7,0.5c-0.1,1.5-0.2,3-0.2,4.5c0,0.3,0.3,0.5,0.7,0.5h7.5
		c0.4,0,0.7-0.2,0.7-0.5c-0.1-1.5-0.2-3-0.2-4.5C243,137,242.7,136.8,242.3,136.8z M233.1,136.8h-7c-0.3,0-0.7,0.2-0.7,0.5
		c-0.3,1.5-0.5,3-0.8,4.5c0,0.3,0.2,0.5,0.6,0.5h7.5c0.4,0,0.7-0.2,0.7-0.5c0.1-1.5,0.2-3,0.3-4.5
		C233.8,137,233.5,136.8,233.1,136.8z M235.4,136h6.9c0.3,0,0.6-0.2,0.6-0.5c-0.1-1.5-0.2-3-0.2-4.5c0-0.3-0.3-0.5-0.6-0.5h-6.4
		c-0.3,0-0.6,0.2-0.6,0.5c-0.1,1.5-0.2,3-0.2,4.5C234.8,135.8,235,136,235.4,136z M233.6,130.5h-6.4c-0.3,0-0.6,0.2-0.7,0.5
		c-0.3,1.5-0.5,3-0.8,4.5c0,0.3,0.2,0.5,0.5,0.5c2.3,0,4.6,0,6.9,0c0.3,0,0.6-0.2,0.7-0.5c0.1-1.5,0.2-3,0.3-4.5
		C234.2,130.7,233.9,130.5,233.6,130.5z M253.1,145.7c1.4,0,2.6-2.4,2.3-3.6c-0.8-3.8-1.5-7.7-2.3-11.5c-0.2-1-1.3-2-2.6-2h-23.4
		c-1.3,0-2.4,1-2.6,2c-0.8,3.8-1.5,7.7-2.3,11.5c-0.2,1.1,1,3.6,2.3,3.6H253.1z M253,143.1h-28.3c-0.6,0-1.2-0.4-1.1-0.9
		c0.7-3.8,1.4-7.7,2.1-11.5c0.1-0.5,0.6-0.9,1.2-0.9h23.8c0.6,0,1.1,0.4,1.2,0.9c0.7,3.8,1.4,7.7,2.1,11.5
		C254.1,142.7,253.6,143.1,253,143.1z M244.4,136h6.9c0.3,0,0.6-0.2,0.5-0.5c-0.3-1.5-0.5-3-0.8-4.5c0-0.3-0.3-0.5-0.7-0.5H244
		c-0.3,0-0.6,0.2-0.5,0.5c0.1,1.5,0.2,3,0.3,4.5C243.8,135.8,244.1,136,244.4,136z M252.2,137.3c0-0.3-0.4-0.5-0.7-0.5h-7
		c-0.3,0-0.6,0.2-0.6,0.5c0.1,1.5,0.2,3,0.3,4.5c0,0.3,0.3,0.5,0.7,0.5h7.5c0.4,0,0.6-0.2,0.6-0.5
		C252.7,140.3,252.5,138.8,252.2,137.3z"/>
	<g>
		<path class="st1" d="M277.7,119.2l-3.2-3.6c-0.2-0.2-0.4-0.6-0.5-0.9l-3.3-11.9c-0.1-0.4-0.5-2.2-0.5-2.5h0.1
			c0.3-0.1,0.6,0,0.7,0.2l8.3,17.4c1.2-0.3,2.4,0.2,3,1.3l4.5-1.2c0.3-0.1,0.7-0.1,1,0l14.1,3.5c0.3,0.1,0.5,0.4,0.5,0.7v0.1
			c0,0.3-0.3,0.2-0.6,0.2l-19.3-1.2c-0.2,0.6-0.7,1.2-1.3,1.5c-0.3,0.1-0.6,0.2-1,0.2l-1.6,5.1c-0.1,0.3-0.3,0.7-0.5,0.9l-9.7,10.2
			c-0.2,0.2-0.6,0.2-0.8,0.1h-0.1c0,0,0.3-0.5,0.6-0.9l10.3-15.9C276.7,120.7,277.5,119.6,277.7,119.2z"/>
		<path class="st1" d="M278.7,121.7c0,0,0,0.1,0,0.5c-0.2,4.7-1.8,40.1-1.8,40.2c0,0.8,1.5,1.4,3.3,1.4c1.7,0,3.2-0.7,3.2-1.4
			c0-0.2-1.9-34.7-2.2-39.8c0-0.5,0-1.3,0-1.3L278.7,121.7z"/>
	</g>
	<g>
		<path class="st1" d="M146.2,210c-9.6,0-19.3-1.5-28.9-4.5c-24.8-7.8-45.4-24.9-58.1-48.1c-26.1-48-9.5-107.5,37-132.8
			c31.5-17.1,70-14.7,100.3,6.4c2.9,2,5.8,4.2,8.5,6.6c2.7,2.3,5.2,4.8,7.7,7.4l0,0l0.1,0.1l0,0c1.1,1.2,2.1,2.4,3,3.5
			c0,0,0,0,0.1,0.1l0.1,0.1l0.1,0.1c1.5,2,2.9,4.2,4.1,6.4c0.9,1.7,1.7,3.4,2.5,5.2c0.7,1.7,1.3,3.5,1.8,5.3c0.4,1.5,0.8,3,1.1,4.5
			s0.5,3,0.7,4.6s0.2,3.3,0.2,4.9c0,1.1,0,2.2-0.1,3.3c-0.9,13.7-7.3,26.6-17.6,35.6c-2.8,2.5-6,4.7-9.3,6.5
			c-2.5,1.4-5.2,2.6-7.9,3.5c-2.7,0.9-5.4,1.6-8.2,2.1c-5.4,0.9-11,1-16.4,0.1c-13.8-2.1-26.2-9.8-34.2-21l4.6-3.3
			c7.1,10,18.2,16.8,30.4,18.7c4.9,0.7,9.8,0.7,14.6-0.1c2.5-0.4,4.9-1,7.3-1.9c2.4-0.8,4.8-1.9,7-3.1c3-1.6,5.8-3.6,8.3-5.8
			c9.2-8,14.9-19.5,15.7-31.7c0.1-1,0.1-2,0.1-3c0-1.5-0.1-2.9-0.2-4.4c-0.1-1.4-0.3-2.7-0.6-4.1c-0.3-1.3-0.6-2.7-1-4
			c-0.4-1.6-1-3.1-1.6-4.7c-0.6-1.6-1.4-3.1-2.2-4.6c-1.1-2-2.3-3.9-3.7-5.7c-0.9-1.2-1.9-2.4-3-3.6l0,0l0,0c-2.3-2.5-4.7-4.8-7.2-7
			s-5.2-4.3-8-6.2c-28.5-19.8-64.7-22.1-94.4-6c-43.7,23.8-59.2,79.9-34.7,125.1c11.9,21.9,31.4,38,54.8,45.4
			c23.4,7.3,47.9,5,69-6.5c15.6-8.5,28.1-21.3,36.2-37.1l5.1,2.6c-8.7,16.9-22,30.5-38.6,39.5C176.9,206.2,161.6,210,146.2,210z"/>
	</g>
	<path class="st1" d="M201.4,118.6c-24.2,11.8-34.6,8.1-41.4,5.5c-4.4-1.7-8.8-4.3-10.6-9.8c-0.2-0.7-0.1-1.4,0.4-1.8
		c3.5-3,4.5-8.1,2.2-12.3l-4.5-8.2c-0.3-0.6-0.1-1.4,0.5-1.7l1.1-0.6c0.6-0.3,0.8-1.1,0.5-1.7l-2.4-4.4c-0.3-0.6-1.1-0.8-1.7-0.5
		l-4.4,2.4c-0.6,0.3-1.4,0.1-1.7-0.5l-6-10.9c-0.3-0.6-1.1-0.8-1.7-0.5l-2.2,1.2c-0.6,0.3-0.8,1.1-0.5,1.7l6,10.9
		c0.3,0.6,0.1,1.4-0.5,1.7l-10.9,6c-0.6,0.3-1.4,0.1-1.7-0.5l-6-10.9c-0.3-0.6-1.1-0.8-1.7-0.5l-2.2,1.2c-0.6,0.3-0.8,1.1-0.5,1.7
		l6,10.9c0.3,0.6,0.1,1.4-0.5,1.7l-4.4,2.4c-0.6,0.3-0.8,1.1-0.5,1.7l2.4,4.4c0.3,0.6,1.1,0.8,1.7,0.5l1.1-0.6
		c0.6-0.3,1.4-0.1,1.7,0.5l4.5,8.2c2.5,4.5,7.9,6.4,12.6,4.4c0.6-0.3,1.4-0.1,1.8,0.5c4.9,7.3,12.9,12.5,22,14
		c3.9,0.6,9.1,1.9,17.6-0.1c8.2-1.9,19.9-6,28.4-13.8"/>
	<g>
		<polygon class="st3" points="5.2,167.5 63.2,167.5 63.2,164.2 61.6,162 61.6,121.6 63.3,113.1 5.4,113.1 		"/>
		<g>
			
				<rect x="30.1" y="131.7" transform="matrix(1 -2.175479e-03 2.175479e-03 1 -0.2912 7.047648e-02)" class="st4" width="4.3" height="4.4"/>
			
				<rect x="23.5" y="131.7" transform="matrix(1 -2.175479e-03 2.175479e-03 1 -0.2912 5.622688e-02)" class="st4" width="4.4" height="4.4"/>
			
				<rect x="17" y="131.7" transform="matrix(1 -2.175479e-03 2.175479e-03 1 -0.2913 4.208626e-02)" class="st4" width="4.4" height="4.4"/>
			
				<rect x="30.1" y="140.4" transform="matrix(1 -2.175479e-03 2.175479e-03 1 -0.3101 7.049691e-02)" class="st4" width="4.3" height="4.4"/>
			
				<rect x="23.5" y="140.4" transform="matrix(1 -2.175479e-03 2.175479e-03 1 -0.3102 5.624752e-02)" class="st4" width="4.4" height="4.4"/>
			
				<rect x="17" y="140.4" transform="matrix(1 -2.175479e-03 2.175479e-03 1 -0.3102 4.210669e-02)" class="st4" width="4.4" height="4.4"/>
			
				<rect x="30.1" y="149.1" transform="matrix(1 -2.175479e-03 2.175479e-03 1 -0.3291 7.051755e-02)" class="st4" width="4.3" height="4.4"/>
			
				<rect x="23.6" y="149.1" transform="matrix(1 -2.175479e-03 2.175479e-03 1 -0.3291 5.648550e-02)" class="st4" width="4.4" height="4.4"/>
			
				<rect x="17" y="149.1" transform="matrix(1 -2.175479e-03 2.175479e-03 1 -0.3291 4.212734e-02)" class="st4" width="4.4" height="4.4"/>
			<path class="st4" d="M6.2,164.4v2.2l32.6-0.1h21.8h2.2v-2.2h-2.2l-0.1-50H38.7l0.1,50h-4.4v-6.5h-4.3v6.5h-2.2v-6.5h-4.4v6.5
				h-2.2v-6.5h-4.4v6.5h-4.3l-0.1-37.1h21.8v-4.1l-26.1,0.1v2v2l0.1,37.1L6.2,164.4z M56.1,122H43v-2.2h13.1V122z M56.2,129.5H43.1
				v-2.2h13.1L56.2,129.5z M56.2,137H43.1v-2.2h13.1L56.2,137z M56.2,144.7H43.1v-2.2h13.1L56.2,144.7z M56.2,153.2H43.1V151h13.1
				L56.2,153.2z M47.5,164.3v-6.8h4.4v6.8H47.5z"/>
			<polygon class="st4" points="25.5,120.8 21.5,120.8 21.4,105.7 45.2,105.7 45.2,109.8 25.5,109.8 			"/>
		</g>
	</g>
	<g>
		<polygon class="st3" points="116.3,235.4 176,235.4 176.3,206.3 158.2,188.9 125.9,186 126.4,200.6 117.1,209.8 		"/>
		<path class="st5" d="M117.2,210.6l3.7,3.9l1.5-1.4v21.5h27.3v-23.4h13.1v23.4h11.9v-21.5l1.5,1.4l3.7-3.9l-31.3-29.7l-12.6,12
			v-5.3h-8.7v13.5L117.2,210.6z M133.2,210.8h9.6v10.3h-9.6V210.8z"/>
	</g>
	<g>
		<path class="st3" d="M257.6,75.7h-65.5l1.3-9.1l1.7-4.8V51.4l-2.4-5l6.8,0.1l16-6.9l0.1,5.8l11.7-5c0,0,2.5-10.3-2.4-10.7
			c-3.7-0.4-5.4-0.9-6.2-1.3c-3.6-2-4.3-5.3-4.3-5.3s5.1,2.5,8,1.2c2.9-1.2,16.5-6.8,16.5-6.8l18.7,1.9L257.6,75.7L257.6,75.7z"/>
		<g>
			<path class="st6" d="M260.3,69.9l0.1-19.7h1.4v-2.9h-6.9L255,28h-10.4v4.3h2.8c0.5,0,0.9,0.4,0.9,0.9s-0.4,0.9-0.9,0.9h-2.8v13.3
				h-3.2v-6.2L228,46.6v-5.5l-13.3,5.5v-5.5l-14.8,6.1h-5.2v2.9h1.4L196,69.7h-2v5.1l68.3,0.1v-5.1L260.3,69.9z M208,65.7h-6.2v-8.4
				h6.2V65.7z M219.6,65.7h-6.2v-8.4h6.2V65.7z M231.3,65.7h-6.2v-8.4h6.2V65.7z M247.2,24.2c0,0.1-1.8-1.2-4.5-1.3
				c-2.7-0.1-6.2,1.4-10.6,3.1c-4.3,1.6-9,2.8-12.5,1.6c-3.5-1.3-4-3.6-4.1-3.4c0-0.1,1.7,1.3,4.5,1.2c2.7-0.1,6.2-1.9,10.6-3.6
				c4.3-1.7,9.3-2.5,12.7-1C246.5,22.1,247.2,24.3,247.2,24.2z"/>
		</g>
	</g>
	<g>
		<g>
			<path class="st3" d="M89.8,45.5c-2.1-1.6-3.5-5-3.5-5L70,40.6l-26.3,1.2c0,0-6.2-1.3-7.4-4.1c-1.1-2.6,1.5-12,1.5-12
				s0.3-2.2,2.4-7.9c0.4-1.1,14.6-5.7,17.8-6.4c9.8-2.2,16.8-1.9,19.5-2c2.3,0,6.4,1,8.2,1.8c1.8,0.8,10.8,5.9,10.8,5.9l8.1,4
				c0,0,8.1,3,11.6,7.9c2.7,3.8,2.9,11.4,2.9,11.4l-7.4,11.8C111.5,52.3,91.8,47.1,89.8,45.5z"/>
			<circle class="st3" cx="95.7" cy="36.7" r="11.3"/>
		</g>
		<g>
			<circle class="st7" cx="51" cy="38.1" r="7.6"/>
			<circle class="st7" cx="96.9" cy="38.1" r="7.6"/>
			<path class="st7" d="M37.1,32.4C37.6,27.4,41,18,41,18s16.4-6.7,22.3-7.4c6-0.7,14.4-1.8,21.1,0.7c6.5,2.5,12.3,7.5,15.9,8.8
				c3.6,1.3,11.5,5.2,14,8c1.5,1.8,2.2,4.4,2.2,6.7c0,0.4,0,0.8,0,1.2c0,1.7-1.4,3.2-3.2,3.2h-5.6c0-0.4,0.1-0.8,0.1-1.2
				c0-6-4.9-10.9-10.9-10.9S86,32,86,38c0,0.4,0,0.8,0.1,1.2H61.8c0-0.4,0.1-0.8,0.1-1.2c0-6-4.9-10.9-10.9-10.9S40.1,32,40.1,38
				c0,0.4,0,0.8,0.1,1.2h-0.3c-1.7,0-3.2-1.4-3.2-3.2C36.8,35.5,36.8,34,37.1,32.4z M97.7,22.5c-2.4-1.6-9.4-6.5-15.4-8.4
				c-3.6-1.2-10.2-1.1-15.1-0.6c-0.3,0-0.5,0-0.8,0L66,22.2L97.7,22.5z M64,22.2l0.5-8.6C61.1,14,54.5,15.7,51,22L64,22.2z"/>
		</g>
	</g>
	<g id="Country">
	</g>
	<g id="squar2182">
	</g>
	<g id="squares488">
	</g>
	<g id="Layer_3">
	</g>
	<g id="Layer_6">
	</g>
</g>
</svg>
